<svg width="24" height="24" viewBox="0 0 24 24" fill="none" xmlns="http://www.w3.org/2000/svg">
<path d="M10.4864 15.4224C10.3406 15.5733 10.26 15.7754 10.2618 15.9851C10.2637 16.1949 10.3478 16.3955 10.4961 16.5439C10.6444 16.6922 10.8451 16.7763 11.0549 16.7781C11.2646 16.78 11.4667 16.6993 11.6176 16.5536L15.8848 12.2704C15.922 12.2332 15.9516 12.1891 15.9717 12.1405C15.9919 12.0919 16.0023 12.0398 16.0023 11.9872C16.0023 11.9346 15.9919 11.8825 15.9717 11.8339C15.9516 11.7853 15.922 11.7412 15.8848 11.704L11.6176 7.4224C11.4667 7.27667 11.2646 7.19604 11.0549 7.19786C10.8451 7.19968 10.6444 7.28382 10.4961 7.43214C10.3478 7.58047 10.2637 7.78112 10.2618 7.99088C10.26 8.20064 10.3406 8.40272 10.4864 8.5536L13.12 11.2H2.39998C2.1878 11.2 1.98432 11.2843 1.83429 11.4343C1.68426 11.5843 1.59998 11.7878 1.59998 12C1.59998 12.2122 1.68426 12.4157 1.83429 12.5657C1.98432 12.7157 2.1878 12.8 2.39998 12.8H13.12L10.4864 15.4224ZM19.2 1.6H8.79998C8.5878 1.6 8.38432 1.68429 8.23429 1.83431C8.08426 1.98434 7.99998 2.18783 7.99998 2.4C7.99998 2.61217 8.08426 2.81566 8.23429 2.96569C8.38432 3.11571 8.5878 3.2 8.79998 3.2H18.4C18.6121 3.2 18.8156 3.28429 18.9657 3.43431C19.1157 3.58434 19.2 3.78783 19.2 4V20C19.2 20.2122 19.1157 20.4157 18.9657 20.5657C18.8156 20.7157 18.6121 20.8 18.4 20.8H8.39998C8.1878 20.8 7.98432 20.8843 7.83429 21.0343C7.68426 21.1843 7.59998 21.3878 7.59998 21.6C7.59998 21.8122 7.68426 22.0157 7.83429 22.1657C7.98432 22.3157 8.1878 22.4 8.39998 22.4H19.2C19.6243 22.4 20.0313 22.2314 20.3313 21.9314C20.6314 21.6313 20.8 21.2243 20.8 20.8V3.2C20.8 2.77565 20.6314 2.36869 20.3313 2.06863C20.0313 1.76857 19.6243 1.6 19.2 1.6Z" fill="#ffc421"/>
</svg>
